<mxfile host="app.diagrams.net" modified="2023-04-07T00:01:46.906Z" agent="Mozilla/5.0 (Macintosh; Intel Mac OS X 10_15_7) AppleWebKit/537.36 (KHTML, like Gecko) Chrome/111.0.0.0 Safari/537.36" etag="NiuVnN4f_YCsp6sdYWWK" version="21.1.5" type="github">
  <diagram name="第 1 页" id="NNC9zIrvJFsryoSqIQ5v">
    <mxGraphModel dx="2069" dy="737" grid="1" gridSize="10" guides="1" tooltips="1" connect="1" arrows="1" fold="1" page="1" pageScale="1" pageWidth="827" pageHeight="1169" math="0" shadow="0">
      <root>
        <mxCell id="0" />
        <mxCell id="1" parent="0" />
        <mxCell id="x5uk2DwPutjuvfdfZv5A-1" value="" style="rounded=0;whiteSpace=wrap;html=1;" vertex="1" parent="1">
          <mxGeometry x="60" y="90" width="410" height="230" as="geometry" />
        </mxCell>
        <mxCell id="x5uk2DwPutjuvfdfZv5A-2" value="" style="endArrow=classic;html=1;rounded=0;exitX=0.5;exitY=1;exitDx=0;exitDy=0;" edge="1" parent="1" source="x5uk2DwPutjuvfdfZv5A-1">
          <mxGeometry width="50" height="50" relative="1" as="geometry">
            <mxPoint x="390" y="410" as="sourcePoint" />
            <mxPoint x="250" y="450" as="targetPoint" />
            <Array as="points">
              <mxPoint y="360" />
              <mxPoint x="270" y="390" />
              <mxPoint x="420" y="470" />
            </Array>
          </mxGeometry>
        </mxCell>
      </root>
    </mxGraphModel>
  </diagram>
</mxfile>
